<svg width="100%" height="100%" viewBox="0 0 400 100" xmlns="http://www.w3.org/2000/svg">
    <path d="M400,-0L0,-0L0,100L400,100L400,-0ZM112.981,30.907L118.96,30.907L118.96,44.755L119.065,44.755C119.485,44.09 119.992,43.496 120.586,42.971C121.181,42.447 121.836,42.001 122.553,41.634C123.27,41.267 124.022,40.987 124.809,40.795C125.595,40.602 126.374,40.506 127.143,40.506C129.276,40.506 131.138,40.882 132.729,41.634C134.32,42.386 135.64,43.417 136.689,44.728C137.738,46.04 138.525,47.57 139.05,49.318C139.574,51.067 139.836,52.937 139.836,54.931C139.836,56.749 139.6,58.515 139.128,60.228C138.656,61.942 137.939,63.454 136.978,64.766C136.016,66.077 134.801,67.126 133.332,67.913C131.864,68.699 130.133,69.093 128.139,69.093C127.23,69.093 126.312,69.032 125.386,68.909C124.459,68.787 123.576,68.551 122.737,68.201C121.898,67.851 121.137,67.397 120.455,66.837C119.773,66.278 119.205,65.544 118.75,64.634L118.645,64.634L118.645,68.359L112.981,68.359L112.981,30.907ZM82.243,30.907L88.223,30.907L88.223,44.755L88.328,44.755C88.747,44.09 89.254,43.496 89.849,42.971C90.443,42.447 91.099,42.001 91.816,41.634C92.533,41.267 93.284,40.987 94.071,40.795C94.858,40.602 95.636,40.506 96.405,40.506C98.539,40.506 100.401,40.882 101.992,41.634C103.583,42.386 104.903,43.417 105.952,44.728C107.001,46.04 107.788,47.57 108.312,49.318C108.837,51.067 109.099,52.937 109.099,54.931C109.099,56.749 108.863,58.515 108.391,60.228C107.919,61.942 107.202,63.454 106.24,64.766C105.279,66.077 104.064,67.126 102.595,67.913C101.126,68.699 99.395,69.093 97.402,69.093C96.493,69.093 95.575,69.032 94.648,68.909C93.722,68.787 92.839,68.551 91.999,68.201C91.16,67.851 90.4,67.397 89.718,66.837C89.036,66.278 88.468,65.544 88.013,64.634L87.908,64.634L87.908,68.359L82.243,68.359L82.243,30.907ZM187.254,59.651C187.429,61.4 188.093,62.624 189.247,63.323C190.401,64.022 191.782,64.372 193.391,64.372C193.95,64.372 194.589,64.328 195.305,64.241C196.022,64.154 196.695,63.987 197.325,63.743C197.954,63.498 198.47,63.139 198.872,62.667C199.274,62.195 199.458,61.575 199.423,60.805C199.388,60.036 199.108,59.407 198.584,58.917C198.059,58.427 197.386,58.034 196.564,57.737C195.743,57.44 194.807,57.186 193.758,56.976C192.709,56.766 191.642,56.539 190.558,56.294C189.439,56.05 188.364,55.752 187.333,55.403C186.301,55.053 185.374,54.581 184.553,53.986C183.731,53.392 183.075,52.631 182.586,51.705C182.096,50.778 181.851,49.633 181.851,48.269C181.851,46.8 182.21,45.568 182.927,44.571C183.643,43.575 184.553,42.77 185.654,42.158C186.756,41.546 187.98,41.118 189.326,40.873C190.672,40.628 191.957,40.506 193.181,40.506C194.58,40.506 195.917,40.655 197.194,40.952C198.47,41.249 199.624,41.73 200.656,42.394C201.687,43.059 202.544,43.924 203.226,44.991C203.908,46.057 204.336,47.342 204.511,48.846L198.269,48.846C197.989,47.412 197.334,46.451 196.302,45.961C195.27,45.472 194.09,45.227 192.761,45.227C192.342,45.227 191.844,45.262 191.267,45.332C190.69,45.402 190.148,45.533 189.641,45.725C189.133,45.917 188.705,46.197 188.355,46.564C188.006,46.932 187.831,47.412 187.831,48.007C187.831,48.741 188.084,49.336 188.591,49.79C189.099,50.245 189.763,50.621 190.585,50.918C191.406,51.215 192.342,51.469 193.391,51.678C194.44,51.888 195.524,52.116 196.643,52.36C197.727,52.605 198.794,52.902 199.843,53.252C200.892,53.602 201.827,54.074 202.649,54.668C203.471,55.263 204.135,56.015 204.642,56.924C205.149,57.833 205.403,58.952 205.403,60.281C205.403,61.889 205.035,63.253 204.301,64.372C203.567,65.491 202.614,66.4 201.442,67.1C200.271,67.799 198.968,68.306 197.535,68.621C196.101,68.936 194.685,69.093 193.286,69.093C191.573,69.093 189.99,68.901 188.539,68.516C187.088,68.131 185.829,67.546 184.762,66.759C183.696,65.972 182.857,64.993 182.245,63.821C181.633,62.65 181.309,61.26 181.274,59.651L187.254,59.651ZM226.961,50.315C226.716,48.636 226.043,47.369 224.941,46.512C223.84,45.655 222.45,45.227 220.771,45.227C220.002,45.227 219.18,45.358 218.306,45.62C217.432,45.882 216.628,46.372 215.893,47.089C215.159,47.806 214.547,48.802 214.057,50.079C213.568,51.355 213.323,53.025 213.323,55.088C213.323,56.207 213.454,57.326 213.716,58.445C213.979,59.564 214.398,60.561 214.975,61.435C215.552,62.309 216.295,63.017 217.205,63.559C218.114,64.101 219.215,64.372 220.509,64.372C222.258,64.372 223.7,63.83 224.836,62.746C225.973,61.662 226.681,60.141 226.961,58.183L232.94,58.183C232.381,61.714 231.043,64.416 228.928,66.287C226.812,68.157 224.006,69.093 220.509,69.093C218.376,69.093 216.496,68.734 214.87,68.018C213.244,67.301 211.872,66.322 210.753,65.08C209.634,63.839 208.786,62.361 208.209,60.648C207.632,58.934 207.343,57.081 207.343,55.088C207.343,53.06 207.623,51.154 208.183,49.371C208.742,47.587 209.581,46.04 210.7,44.728C211.819,43.417 213.209,42.386 214.87,41.634C216.531,40.882 218.481,40.506 220.719,40.506C222.293,40.506 223.787,40.707 225.204,41.109C226.62,41.511 227.879,42.115 228.98,42.919C230.082,43.723 230.982,44.737 231.682,45.961C232.381,47.185 232.801,48.636 232.94,50.315L226.961,50.315ZM269.972,56.347C269.972,57.396 270.121,58.41 270.418,59.389C270.715,60.368 271.161,61.225 271.756,61.959C272.35,62.694 273.102,63.279 274.011,63.716C274.92,64.154 276.004,64.372 277.263,64.372C279.012,64.372 280.419,63.996 281.486,63.244C282.552,62.493 283.348,61.365 283.872,59.861L289.537,59.861C289.222,61.33 288.68,62.641 287.911,63.795C287.142,64.949 286.215,65.919 285.131,66.706C284.047,67.493 282.832,68.088 281.486,68.49C280.139,68.892 278.732,69.093 277.263,69.093C275.13,69.093 273.242,68.743 271.598,68.044C269.955,67.344 268.565,66.365 267.428,65.106C266.292,63.848 265.435,62.344 264.858,60.595C264.281,58.847 263.993,56.924 263.993,54.826C263.993,52.902 264.299,51.075 264.911,49.344C265.522,47.613 266.397,46.092 267.533,44.781C268.67,43.47 270.042,42.429 271.651,41.66C273.259,40.891 275.078,40.506 277.106,40.506C279.239,40.506 281.153,40.952 282.849,41.844C284.545,42.735 285.953,43.915 287.072,45.384C288.191,46.853 289.004,48.54 289.511,50.446C290.018,52.352 290.149,54.319 289.904,56.347L269.972,56.347ZM76.945,62.326C76.945,63.061 77.042,63.585 77.234,63.9C77.426,64.215 77.802,64.372 78.362,64.372L78.991,64.372C79.236,64.372 79.516,64.337 79.83,64.267L79.83,68.411C79.62,68.481 79.349,68.56 79.017,68.647C78.685,68.734 78.344,68.813 77.994,68.883C77.645,68.953 77.295,69.005 76.945,69.04C76.596,69.075 76.298,69.093 76.054,69.093C74.83,69.093 73.816,68.848 73.011,68.359C72.207,67.869 71.683,67.012 71.438,65.788C70.249,66.942 68.789,67.782 67.058,68.306C65.327,68.831 63.657,69.093 62.049,69.093C60.825,69.093 59.653,68.927 58.534,68.595C57.415,68.262 56.428,67.773 55.571,67.126C54.714,66.479 54.032,65.657 53.525,64.661C53.018,63.664 52.765,62.501 52.765,61.172C52.765,59.494 53.071,58.13 53.682,57.081C54.294,56.032 55.099,55.21 56.095,54.616C57.092,54.021 58.211,53.593 59.452,53.331C60.694,53.068 61.944,52.867 63.203,52.728C64.287,52.518 65.318,52.369 66.297,52.282C67.277,52.194 68.142,52.046 68.894,51.836C69.646,51.626 70.24,51.303 70.677,50.865C71.114,50.428 71.333,49.773 71.333,48.898C71.333,48.129 71.149,47.5 70.782,47.01C70.415,46.521 69.96,46.145 69.418,45.882C68.876,45.62 68.273,45.445 67.609,45.358C66.944,45.27 66.315,45.227 65.72,45.227C64.042,45.227 62.661,45.576 61.577,46.276C60.493,46.975 59.881,48.059 59.741,49.528L53.761,49.528C53.866,47.779 54.286,46.328 55.02,45.174C55.754,44.02 56.69,43.094 57.826,42.394C58.963,41.695 60.248,41.205 61.682,40.926C63.115,40.646 64.584,40.506 66.088,40.506C67.416,40.506 68.728,40.646 70.022,40.926C71.315,41.205 72.478,41.66 73.51,42.289C74.541,42.919 75.372,43.732 76.001,44.728C76.631,45.725 76.945,46.94 76.945,48.374L76.945,62.326ZM159.559,56.347C159.559,57.396 159.707,58.41 160.005,59.389C160.302,60.368 160.748,61.225 161.342,61.959C161.937,62.694 162.688,63.279 163.598,63.716C164.507,64.154 165.591,64.372 166.85,64.372C168.598,64.372 170.006,63.996 171.072,63.244C172.139,62.493 172.934,61.365 173.459,59.861L179.124,59.861C178.809,61.33 178.267,62.641 177.498,63.795C176.728,64.949 175.802,65.919 174.718,66.706C173.634,67.493 172.418,68.088 171.072,68.49C169.726,68.892 168.318,69.093 166.85,69.093C164.717,69.093 162.828,68.743 161.185,68.044C159.541,67.344 158.151,66.365 157.015,65.106C155.878,63.848 155.022,62.344 154.445,60.595C153.868,58.847 153.579,56.924 153.579,54.826C153.579,52.902 153.885,51.075 154.497,49.344C155.109,47.613 155.983,46.092 157.12,44.781C158.256,43.47 159.629,42.429 161.237,41.66C162.846,40.891 164.664,40.506 166.692,40.506C168.825,40.506 170.74,40.952 172.436,41.844C174.132,42.735 175.539,43.915 176.658,45.384C177.777,46.853 178.59,48.54 179.097,50.446C179.605,52.352 179.736,54.319 179.491,56.347L159.559,56.347ZM143.718,41.24L149.698,41.24L149.698,68.359L143.718,68.359L143.718,41.24ZM293.156,41.24L298.821,41.24L298.821,45.227L298.926,45.332C299.835,43.828 301.024,42.648 302.493,41.791C303.962,40.934 305.588,40.506 307.371,40.506C310.344,40.506 312.686,41.275 314.4,42.814C316.113,44.353 316.97,46.66 316.97,49.738L316.97,68.359L310.99,68.359L310.99,51.311C310.921,49.178 310.466,47.631 309.627,46.669C308.787,45.708 307.476,45.227 305.693,45.227C304.679,45.227 303.769,45.41 302.965,45.778C302.161,46.145 301.479,46.652 300.919,47.299C300.36,47.946 299.923,48.706 299.608,49.58C299.293,50.455 299.136,51.381 299.136,52.36L299.136,68.359L293.156,68.359L293.156,41.24ZM322.11,30.907L328.09,30.907L328.09,52.203L338.895,41.24L346.239,41.24L335.853,51.206L347.235,68.359L339.944,68.359L331.657,55.193L328.09,58.655L328.09,68.359L322.11,68.359L322.11,30.907ZM236.507,30.907L242.487,30.907L242.487,44.807L242.592,44.807C243.326,43.583 244.419,42.56 245.87,41.739C247.321,40.917 248.939,40.506 250.722,40.506C253.694,40.506 256.037,41.275 257.751,42.814C259.464,44.353 260.321,46.66 260.321,49.738L260.321,68.359L254.341,68.359L254.341,51.311C254.271,49.178 253.817,47.631 252.977,46.669C252.138,45.708 250.827,45.227 249.044,45.227C248.029,45.227 247.12,45.41 246.316,45.778C245.512,46.145 244.83,46.652 244.27,47.299C243.711,47.946 243.274,48.706 242.959,49.58C242.644,50.455 242.487,51.381 242.487,52.36L242.487,68.359L236.507,68.359L236.507,30.907ZM70.966,54.773C70.057,55.368 68.938,55.726 67.609,55.849C66.28,55.971 64.951,56.154 63.622,56.399C62.993,56.504 62.381,56.653 61.786,56.845C61.192,57.037 60.667,57.3 60.213,57.632C59.758,57.964 59.4,58.401 59.138,58.943C58.875,59.485 58.744,60.141 58.744,60.91C58.744,61.575 58.937,62.134 59.321,62.589C59.706,63.043 60.169,63.402 60.711,63.664C61.253,63.926 61.848,64.11 62.495,64.215C63.142,64.32 63.727,64.372 64.252,64.372C64.916,64.372 65.633,64.285 66.402,64.11C67.172,63.935 67.897,63.638 68.579,63.218C69.261,62.799 69.829,62.265 70.284,61.618C70.738,60.971 70.966,60.176 70.966,59.232L70.966,54.773ZM103.119,54.826C103.119,53.602 102.962,52.413 102.647,51.259C102.333,50.105 101.861,49.082 101.231,48.19C100.602,47.299 99.815,46.582 98.871,46.04C97.927,45.498 96.843,45.227 95.619,45.227C93.101,45.227 91.204,46.101 89.927,47.849C88.651,49.598 88.013,51.923 88.013,54.826C88.013,56.189 88.179,57.457 88.511,58.629C88.843,59.8 89.342,60.805 90.006,61.645C90.671,62.484 91.466,63.148 92.393,63.638C93.319,64.127 94.395,64.372 95.619,64.372C96.982,64.372 98.136,64.092 99.081,63.533C100.025,62.973 100.803,62.248 101.415,61.356C102.027,60.464 102.464,59.45 102.726,58.314C102.988,57.177 103.119,56.015 103.119,54.826ZM133.857,54.826C133.857,53.602 133.699,52.413 133.385,51.259C133.07,50.105 132.598,49.082 131.969,48.19C131.339,47.299 130.552,46.582 129.608,46.04C128.664,45.498 127.58,45.227 126.356,45.227C123.838,45.227 121.941,46.101 120.665,47.849C119.389,49.598 118.75,51.923 118.75,54.826C118.75,56.189 118.916,57.457 119.249,58.629C119.581,59.8 120.079,60.805 120.744,61.645C121.408,62.484 122.204,63.148 123.13,63.638C124.057,64.127 125.132,64.372 126.356,64.372C127.72,64.372 128.874,64.092 129.818,63.533C130.762,62.973 131.54,62.248 132.152,61.356C132.764,60.464 133.201,59.45 133.463,58.314C133.726,57.177 133.857,56.015 133.857,54.826ZM173.511,52.413C173.441,51.469 173.24,50.559 172.908,49.685C172.576,48.811 172.121,48.05 171.544,47.404C170.967,46.757 170.268,46.232 169.446,45.83C168.624,45.428 167.706,45.227 166.692,45.227C165.643,45.227 164.69,45.41 163.834,45.778C162.977,46.145 162.243,46.652 161.631,47.299C161.019,47.946 160.529,48.706 160.162,49.58C159.795,50.455 159.594,51.399 159.559,52.413L173.511,52.413ZM283.925,52.413C283.855,51.469 283.654,50.559 283.322,49.685C282.989,48.811 282.535,48.05 281.958,47.404C281.381,46.757 280.681,46.232 279.86,45.83C279.038,45.428 278.12,45.227 277.106,45.227C276.057,45.227 275.104,45.41 274.247,45.778C273.39,46.145 272.656,46.652 272.044,47.299C271.432,47.946 270.943,48.706 270.575,49.58C270.208,50.455 270.007,51.399 269.972,52.413L283.925,52.413ZM143.718,30.907L149.698,30.907L149.698,36.572L143.718,36.572L143.718,30.907Z" />
</svg>
